<?xml version="1.0" encoding="utf-8" standalone="no"?>
<!DOCTYPE svg PUBLIC "-//W3C//DTD SVG 1.1//EN"
  "http://www.w3.org/Graphics/SVG/1.1/DTD/svg11.dtd">
<svg xmlns:xlink="http://www.w3.org/1999/xlink" width="1080pt" height="288pt" viewBox="0 0 1080 288" xmlns="http://www.w3.org/2000/svg" version="1.1">
 <metadata>
  <rdf:RDF xmlns:dc="http://purl.org/dc/elements/1.1/" xmlns:cc="http://creativecommons.org/ns#" xmlns:rdf="http://www.w3.org/1999/02/22-rdf-syntax-ns#">
   <cc:Work>
    <dc:type rdf:resource="http://purl.org/dc/dcmitype/StillImage"/>
    <dc:date>1980-01-01T00:00:00+00:00</dc:date>
    <dc:format>image/svg+xml</dc:format>
    <dc:creator>
     <cc:Agent>
      <dc:title>Matplotlib v3.8.0, https://matplotlib.org/</dc:title>
     </cc:Agent>
    </dc:creator>
   </cc:Work>
  </rdf:RDF>
 </metadata>
 <defs>
  <style type="text/css">*{stroke-linejoin: round; stroke-linecap: butt}</style>
 </defs>
 <g id="figure_1">
  <g id="patch_1">
   <path d="M 0 288 
L 1080 288 
L 1080 0 
L 0 0 
z
" style="fill: #ffffff"/>
  </g>
  <g id="axes_1">
   <g id="patch_2">
    <path d="M 135 256.32 
L 972 256.32 
L 972 34.56 
L 135 34.56 
z
" style="fill: #ffffff"/>
   </g>
   <g id="matplotlib.axis_1">
    <g id="xtick_1">
     <g id="line2d_1">
      <path d="M 157.621622 256.32 
L 157.621622 34.56 
" clip-path="url(#p60880e0bb3)" style="fill: none; stroke: #dad8d7; stroke-opacity: 0.5; stroke-width: 0.8; stroke-linecap: square"/>
     </g>
     <g id="line2d_2">
      <defs>
       <path id="mceda95fc60" d="M 0 0 
L 0 3.5 
" style="stroke: #000000; stroke-width: 0.8"/>
      </defs>
      <g>
       <use xlink:href="#mceda95fc60" x="157.621622" y="256.32" style="stroke: #000000; stroke-width: 0.8"/>
      </g>
     </g>
     <g id="text_1">
      <!-- 0% -->
      <g transform="translate(149.68959 270.918437) scale(0.1 -0.1)">
       <defs>
        <path id="DejaVuSans-30" d="M 2034 4250 
Q 1547 4250 1301 3770 
Q 1056 3291 1056 2328 
Q 1056 1369 1301 889 
Q 1547 409 2034 409 
Q 2525 409 2770 889 
Q 3016 1369 3016 2328 
Q 3016 3291 2770 3770 
Q 2525 4250 2034 4250 
z
M 2034 4750 
Q 2819 4750 3233 4129 
Q 3647 3509 3647 2328 
Q 3647 1150 3233 529 
Q 2819 -91 2034 -91 
Q 1250 -91 836 529 
Q 422 1150 422 2328 
Q 422 3509 836 4129 
Q 1250 4750 2034 4750 
z
" transform="scale(0.015625)"/>
        <path id="DejaVuSans-25" d="M 4653 2053 
Q 4381 2053 4226 1822 
Q 4072 1591 4072 1178 
Q 4072 772 4226 539 
Q 4381 306 4653 306 
Q 4919 306 5073 539 
Q 5228 772 5228 1178 
Q 5228 1588 5073 1820 
Q 4919 2053 4653 2053 
z
M 4653 2450 
Q 5147 2450 5437 2106 
Q 5728 1763 5728 1178 
Q 5728 594 5436 251 
Q 5144 -91 4653 -91 
Q 4153 -91 3862 251 
Q 3572 594 3572 1178 
Q 3572 1766 3864 2108 
Q 4156 2450 4653 2450 
z
M 1428 4353 
Q 1159 4353 1004 4120 
Q 850 3888 850 3481 
Q 850 3069 1003 2837 
Q 1156 2606 1428 2606 
Q 1700 2606 1854 2837 
Q 2009 3069 2009 3481 
Q 2009 3884 1853 4118 
Q 1697 4353 1428 4353 
z
M 4250 4750 
L 4750 4750 
L 1831 -91 
L 1331 -91 
L 4250 4750 
z
M 1428 4750 
Q 1922 4750 2215 4408 
Q 2509 4066 2509 3481 
Q 2509 2891 2217 2550 
Q 1925 2209 1428 2209 
Q 931 2209 642 2551 
Q 353 2894 353 3481 
Q 353 4063 643 4406 
Q 934 4750 1428 4750 
z
" transform="scale(0.015625)"/>
       </defs>
       <use xlink:href="#DejaVuSans-30"/>
       <use xlink:href="#DejaVuSans-25" x="63.623047"/>
      </g>
     </g>
    </g>
    <g id="xtick_2">
     <g id="line2d_3">
      <path d="M 209.034398 256.32 
L 209.034398 34.56 
" clip-path="url(#p60880e0bb3)" style="fill: none; stroke: #dad8d7; stroke-opacity: 0.5; stroke-width: 0.8; stroke-linecap: square"/>
     </g>
     <g id="line2d_4">
      <g>
       <use xlink:href="#mceda95fc60" x="209.034398" y="256.32" style="stroke: #000000; stroke-width: 0.8"/>
      </g>
     </g>
     <g id="text_2">
      <!-- 10% -->
      <g transform="translate(197.921117 270.918437) scale(0.1 -0.1)">
       <defs>
        <path id="DejaVuSans-31" d="M 794 531 
L 1825 531 
L 1825 4091 
L 703 3866 
L 703 4441 
L 1819 4666 
L 2450 4666 
L 2450 531 
L 3481 531 
L 3481 0 
L 794 0 
L 794 531 
z
" transform="scale(0.015625)"/>
       </defs>
       <use xlink:href="#DejaVuSans-31"/>
       <use xlink:href="#DejaVuSans-30" x="63.623047"/>
       <use xlink:href="#DejaVuSans-25" x="127.246094"/>
      </g>
     </g>
    </g>
    <g id="xtick_3">
     <g id="line2d_5">
      <path d="M 260.447174 256.32 
L 260.447174 34.56 
" clip-path="url(#p60880e0bb3)" style="fill: none; stroke: #dad8d7; stroke-opacity: 0.5; stroke-width: 0.8; stroke-linecap: square"/>
     </g>
     <g id="line2d_6">
      <g>
       <use xlink:href="#mceda95fc60" x="260.447174" y="256.32" style="stroke: #000000; stroke-width: 0.8"/>
      </g>
     </g>
     <g id="text_3">
      <!-- 20% -->
      <g transform="translate(249.333893 270.918437) scale(0.1 -0.1)">
       <defs>
        <path id="DejaVuSans-32" d="M 1228 531 
L 3431 531 
L 3431 0 
L 469 0 
L 469 531 
Q 828 903 1448 1529 
Q 2069 2156 2228 2338 
Q 2531 2678 2651 2914 
Q 2772 3150 2772 3378 
Q 2772 3750 2511 3984 
Q 2250 4219 1831 4219 
Q 1534 4219 1204 4116 
Q 875 4013 500 3803 
L 500 4441 
Q 881 4594 1212 4672 
Q 1544 4750 1819 4750 
Q 2544 4750 2975 4387 
Q 3406 4025 3406 3419 
Q 3406 3131 3298 2873 
Q 3191 2616 2906 2266 
Q 2828 2175 2409 1742 
Q 1991 1309 1228 531 
z
" transform="scale(0.015625)"/>
       </defs>
       <use xlink:href="#DejaVuSans-32"/>
       <use xlink:href="#DejaVuSans-30" x="63.623047"/>
       <use xlink:href="#DejaVuSans-25" x="127.246094"/>
      </g>
     </g>
    </g>
    <g id="xtick_4">
     <g id="line2d_7">
      <path d="M 311.859951 256.32 
L 311.859951 34.56 
" clip-path="url(#p60880e0bb3)" style="fill: none; stroke: #dad8d7; stroke-opacity: 0.5; stroke-width: 0.8; stroke-linecap: square"/>
     </g>
     <g id="line2d_8">
      <g>
       <use xlink:href="#mceda95fc60" x="311.859951" y="256.32" style="stroke: #000000; stroke-width: 0.8"/>
      </g>
     </g>
     <g id="text_4">
      <!-- 30% -->
      <g transform="translate(300.74667 270.918437) scale(0.1 -0.1)">
       <defs>
        <path id="DejaVuSans-33" d="M 2597 2516 
Q 3050 2419 3304 2112 
Q 3559 1806 3559 1356 
Q 3559 666 3084 287 
Q 2609 -91 1734 -91 
Q 1441 -91 1130 -33 
Q 819 25 488 141 
L 488 750 
Q 750 597 1062 519 
Q 1375 441 1716 441 
Q 2309 441 2620 675 
Q 2931 909 2931 1356 
Q 2931 1769 2642 2001 
Q 2353 2234 1838 2234 
L 1294 2234 
L 1294 2753 
L 1863 2753 
Q 2328 2753 2575 2939 
Q 2822 3125 2822 3475 
Q 2822 3834 2567 4026 
Q 2313 4219 1838 4219 
Q 1578 4219 1281 4162 
Q 984 4106 628 3988 
L 628 4550 
Q 988 4650 1302 4700 
Q 1616 4750 1894 4750 
Q 2613 4750 3031 4423 
Q 3450 4097 3450 3541 
Q 3450 3153 3228 2886 
Q 3006 2619 2597 2516 
z
" transform="scale(0.015625)"/>
       </defs>
       <use xlink:href="#DejaVuSans-33"/>
       <use xlink:href="#DejaVuSans-30" x="63.623047"/>
       <use xlink:href="#DejaVuSans-25" x="127.246094"/>
      </g>
     </g>
    </g>
    <g id="xtick_5">
     <g id="line2d_9">
      <path d="M 363.272727 256.32 
L 363.272727 34.56 
" clip-path="url(#p60880e0bb3)" style="fill: none; stroke: #dad8d7; stroke-opacity: 0.5; stroke-width: 0.8; stroke-linecap: square"/>
     </g>
     <g id="line2d_10">
      <g>
       <use xlink:href="#mceda95fc60" x="363.272727" y="256.32" style="stroke: #000000; stroke-width: 0.8"/>
      </g>
     </g>
     <g id="text_5">
      <!-- 40% -->
      <g transform="translate(352.159446 270.918437) scale(0.1 -0.1)">
       <defs>
        <path id="DejaVuSans-34" d="M 2419 4116 
L 825 1625 
L 2419 1625 
L 2419 4116 
z
M 2253 4666 
L 3047 4666 
L 3047 1625 
L 3713 1625 
L 3713 1100 
L 3047 1100 
L 3047 0 
L 2419 0 
L 2419 1100 
L 313 1100 
L 313 1709 
L 2253 4666 
z
" transform="scale(0.015625)"/>
       </defs>
       <use xlink:href="#DejaVuSans-34"/>
       <use xlink:href="#DejaVuSans-30" x="63.623047"/>
       <use xlink:href="#DejaVuSans-25" x="127.246094"/>
      </g>
     </g>
    </g>
    <g id="xtick_6">
     <g id="line2d_11">
      <path d="M 414.685504 256.32 
L 414.685504 34.56 
" clip-path="url(#p60880e0bb3)" style="fill: none; stroke: #dad8d7; stroke-opacity: 0.5; stroke-width: 0.8; stroke-linecap: square"/>
     </g>
     <g id="line2d_12">
      <g>
       <use xlink:href="#mceda95fc60" x="414.685504" y="256.32" style="stroke: #000000; stroke-width: 0.8"/>
      </g>
     </g>
     <g id="text_6">
      <!-- 50% -->
      <g transform="translate(403.572222 270.918437) scale(0.1 -0.1)">
       <defs>
        <path id="DejaVuSans-35" d="M 691 4666 
L 3169 4666 
L 3169 4134 
L 1269 4134 
L 1269 2991 
Q 1406 3038 1543 3061 
Q 1681 3084 1819 3084 
Q 2600 3084 3056 2656 
Q 3513 2228 3513 1497 
Q 3513 744 3044 326 
Q 2575 -91 1722 -91 
Q 1428 -91 1123 -41 
Q 819 9 494 109 
L 494 744 
Q 775 591 1075 516 
Q 1375 441 1709 441 
Q 2250 441 2565 725 
Q 2881 1009 2881 1497 
Q 2881 1984 2565 2268 
Q 2250 2553 1709 2553 
Q 1456 2553 1204 2497 
Q 953 2441 691 2322 
L 691 4666 
z
" transform="scale(0.015625)"/>
       </defs>
       <use xlink:href="#DejaVuSans-35"/>
       <use xlink:href="#DejaVuSans-30" x="63.623047"/>
       <use xlink:href="#DejaVuSans-25" x="127.246094"/>
      </g>
     </g>
    </g>
    <g id="xtick_7">
     <g id="line2d_13">
      <path d="M 466.09828 256.32 
L 466.09828 34.56 
" clip-path="url(#p60880e0bb3)" style="fill: none; stroke: #dad8d7; stroke-opacity: 0.5; stroke-width: 0.8; stroke-linecap: square"/>
     </g>
     <g id="line2d_14">
      <g>
       <use xlink:href="#mceda95fc60" x="466.09828" y="256.32" style="stroke: #000000; stroke-width: 0.8"/>
      </g>
     </g>
     <g id="text_7">
      <!-- 60% -->
      <g transform="translate(454.984999 270.918437) scale(0.1 -0.1)">
       <defs>
        <path id="DejaVuSans-36" d="M 2113 2584 
Q 1688 2584 1439 2293 
Q 1191 2003 1191 1497 
Q 1191 994 1439 701 
Q 1688 409 2113 409 
Q 2538 409 2786 701 
Q 3034 994 3034 1497 
Q 3034 2003 2786 2293 
Q 2538 2584 2113 2584 
z
M 3366 4563 
L 3366 3988 
Q 3128 4100 2886 4159 
Q 2644 4219 2406 4219 
Q 1781 4219 1451 3797 
Q 1122 3375 1075 2522 
Q 1259 2794 1537 2939 
Q 1816 3084 2150 3084 
Q 2853 3084 3261 2657 
Q 3669 2231 3669 1497 
Q 3669 778 3244 343 
Q 2819 -91 2113 -91 
Q 1303 -91 875 529 
Q 447 1150 447 2328 
Q 447 3434 972 4092 
Q 1497 4750 2381 4750 
Q 2619 4750 2861 4703 
Q 3103 4656 3366 4563 
z
" transform="scale(0.015625)"/>
       </defs>
       <use xlink:href="#DejaVuSans-36"/>
       <use xlink:href="#DejaVuSans-30" x="63.623047"/>
       <use xlink:href="#DejaVuSans-25" x="127.246094"/>
      </g>
     </g>
    </g>
    <g id="xtick_8">
     <g id="line2d_15">
      <path d="M 517.511057 256.32 
L 517.511057 34.56 
" clip-path="url(#p60880e0bb3)" style="fill: none; stroke: #dad8d7; stroke-opacity: 0.5; stroke-width: 0.8; stroke-linecap: square"/>
     </g>
     <g id="line2d_16">
      <g>
       <use xlink:href="#mceda95fc60" x="517.511057" y="256.32" style="stroke: #000000; stroke-width: 0.8"/>
      </g>
     </g>
     <g id="text_8">
      <!-- 70% -->
      <g transform="translate(506.397775 270.918437) scale(0.1 -0.1)">
       <defs>
        <path id="DejaVuSans-37" d="M 525 4666 
L 3525 4666 
L 3525 4397 
L 1831 0 
L 1172 0 
L 2766 4134 
L 525 4134 
L 525 4666 
z
" transform="scale(0.015625)"/>
       </defs>
       <use xlink:href="#DejaVuSans-37"/>
       <use xlink:href="#DejaVuSans-30" x="63.623047"/>
       <use xlink:href="#DejaVuSans-25" x="127.246094"/>
      </g>
     </g>
    </g>
    <g id="xtick_9">
     <g id="line2d_17">
      <path d="M 568.923833 256.32 
L 568.923833 34.56 
" clip-path="url(#p60880e0bb3)" style="fill: none; stroke: #dad8d7; stroke-opacity: 0.5; stroke-width: 0.8; stroke-linecap: square"/>
     </g>
     <g id="line2d_18">
      <g>
       <use xlink:href="#mceda95fc60" x="568.923833" y="256.32" style="stroke: #000000; stroke-width: 0.8"/>
      </g>
     </g>
     <g id="text_9">
      <!-- 80% -->
      <g transform="translate(557.810552 270.918437) scale(0.1 -0.1)">
       <defs>
        <path id="DejaVuSans-38" d="M 2034 2216 
Q 1584 2216 1326 1975 
Q 1069 1734 1069 1313 
Q 1069 891 1326 650 
Q 1584 409 2034 409 
Q 2484 409 2743 651 
Q 3003 894 3003 1313 
Q 3003 1734 2745 1975 
Q 2488 2216 2034 2216 
z
M 1403 2484 
Q 997 2584 770 2862 
Q 544 3141 544 3541 
Q 544 4100 942 4425 
Q 1341 4750 2034 4750 
Q 2731 4750 3128 4425 
Q 3525 4100 3525 3541 
Q 3525 3141 3298 2862 
Q 3072 2584 2669 2484 
Q 3125 2378 3379 2068 
Q 3634 1759 3634 1313 
Q 3634 634 3220 271 
Q 2806 -91 2034 -91 
Q 1263 -91 848 271 
Q 434 634 434 1313 
Q 434 1759 690 2068 
Q 947 2378 1403 2484 
z
M 1172 3481 
Q 1172 3119 1398 2916 
Q 1625 2713 2034 2713 
Q 2441 2713 2670 2916 
Q 2900 3119 2900 3481 
Q 2900 3844 2670 4047 
Q 2441 4250 2034 4250 
Q 1625 4250 1398 4047 
Q 1172 3844 1172 3481 
z
" transform="scale(0.015625)"/>
       </defs>
       <use xlink:href="#DejaVuSans-38"/>
       <use xlink:href="#DejaVuSans-30" x="63.623047"/>
       <use xlink:href="#DejaVuSans-25" x="127.246094"/>
      </g>
     </g>
    </g>
    <g id="xtick_10">
     <g id="line2d_19">
      <path d="M 620.336609 256.32 
L 620.336609 34.56 
" clip-path="url(#p60880e0bb3)" style="fill: none; stroke: #dad8d7; stroke-opacity: 0.5; stroke-width: 0.8; stroke-linecap: square"/>
     </g>
     <g id="line2d_20">
      <g>
       <use xlink:href="#mceda95fc60" x="620.336609" y="256.32" style="stroke: #000000; stroke-width: 0.8"/>
      </g>
     </g>
     <g id="text_10">
      <!-- 90% -->
      <g transform="translate(609.223328 270.918437) scale(0.1 -0.1)">
       <defs>
        <path id="DejaVuSans-39" d="M 703 97 
L 703 672 
Q 941 559 1184 500 
Q 1428 441 1663 441 
Q 2288 441 2617 861 
Q 2947 1281 2994 2138 
Q 2813 1869 2534 1725 
Q 2256 1581 1919 1581 
Q 1219 1581 811 2004 
Q 403 2428 403 3163 
Q 403 3881 828 4315 
Q 1253 4750 1959 4750 
Q 2769 4750 3195 4129 
Q 3622 3509 3622 2328 
Q 3622 1225 3098 567 
Q 2575 -91 1691 -91 
Q 1453 -91 1209 -44 
Q 966 3 703 97 
z
M 1959 2075 
Q 2384 2075 2632 2365 
Q 2881 2656 2881 3163 
Q 2881 3666 2632 3958 
Q 2384 4250 1959 4250 
Q 1534 4250 1286 3958 
Q 1038 3666 1038 3163 
Q 1038 2656 1286 2365 
Q 1534 2075 1959 2075 
z
" transform="scale(0.015625)"/>
       </defs>
       <use xlink:href="#DejaVuSans-39"/>
       <use xlink:href="#DejaVuSans-30" x="63.623047"/>
       <use xlink:href="#DejaVuSans-25" x="127.246094"/>
      </g>
     </g>
    </g>
    <g id="xtick_11">
     <g id="line2d_21">
      <path d="M 671.749386 256.32 
L 671.749386 34.56 
" clip-path="url(#p60880e0bb3)" style="fill: none; stroke: #dad8d7; stroke-opacity: 0.5; stroke-width: 0.8; stroke-linecap: square"/>
     </g>
     <g id="line2d_22">
      <g>
       <use xlink:href="#mceda95fc60" x="671.749386" y="256.32" style="stroke: #000000; stroke-width: 0.8"/>
      </g>
     </g>
     <g id="text_11">
      <!-- 100% -->
      <g transform="translate(657.454854 270.918437) scale(0.1 -0.1)">
       <use xlink:href="#DejaVuSans-31"/>
       <use xlink:href="#DejaVuSans-30" x="63.623047"/>
       <use xlink:href="#DejaVuSans-30" x="127.246094"/>
       <use xlink:href="#DejaVuSans-25" x="190.869141"/>
      </g>
     </g>
    </g>
    <g id="xtick_12">
     <g id="line2d_23">
      <path d="M 723.162162 256.32 
L 723.162162 34.56 
" clip-path="url(#p60880e0bb3)" style="fill: none; stroke: #dad8d7; stroke-opacity: 0.5; stroke-width: 0.8; stroke-linecap: square"/>
     </g>
     <g id="line2d_24">
      <g>
       <use xlink:href="#mceda95fc60" x="723.162162" y="256.32" style="stroke: #000000; stroke-width: 0.8"/>
      </g>
     </g>
     <g id="text_12">
      <!-- 110% -->
      <g transform="translate(708.867631 270.918437) scale(0.1 -0.1)">
       <use xlink:href="#DejaVuSans-31"/>
       <use xlink:href="#DejaVuSans-31" x="63.623047"/>
       <use xlink:href="#DejaVuSans-30" x="127.246094"/>
       <use xlink:href="#DejaVuSans-25" x="190.869141"/>
      </g>
     </g>
    </g>
    <g id="xtick_13">
     <g id="line2d_25">
      <path d="M 774.574939 256.32 
L 774.574939 34.56 
" clip-path="url(#p60880e0bb3)" style="fill: none; stroke: #dad8d7; stroke-opacity: 0.5; stroke-width: 0.8; stroke-linecap: square"/>
     </g>
     <g id="line2d_26">
      <g>
       <use xlink:href="#mceda95fc60" x="774.574939" y="256.32" style="stroke: #000000; stroke-width: 0.8"/>
      </g>
     </g>
     <g id="text_13">
      <!-- 120% -->
      <g transform="translate(760.280407 270.918437) scale(0.1 -0.1)">
       <use xlink:href="#DejaVuSans-31"/>
       <use xlink:href="#DejaVuSans-32" x="63.623047"/>
       <use xlink:href="#DejaVuSans-30" x="127.246094"/>
       <use xlink:href="#DejaVuSans-25" x="190.869141"/>
      </g>
     </g>
    </g>
    <g id="xtick_14">
     <g id="line2d_27">
      <path d="M 825.987715 256.32 
L 825.987715 34.56 
" clip-path="url(#p60880e0bb3)" style="fill: none; stroke: #dad8d7; stroke-opacity: 0.5; stroke-width: 0.8; stroke-linecap: square"/>
     </g>
     <g id="line2d_28">
      <g>
       <use xlink:href="#mceda95fc60" x="825.987715" y="256.32" style="stroke: #000000; stroke-width: 0.8"/>
      </g>
     </g>
     <g id="text_14">
      <!-- 130% -->
      <g transform="translate(811.693184 270.918437) scale(0.1 -0.1)">
       <use xlink:href="#DejaVuSans-31"/>
       <use xlink:href="#DejaVuSans-33" x="63.623047"/>
       <use xlink:href="#DejaVuSans-30" x="127.246094"/>
       <use xlink:href="#DejaVuSans-25" x="190.869141"/>
      </g>
     </g>
    </g>
    <g id="xtick_15">
     <g id="line2d_29">
      <path d="M 877.400491 256.32 
L 877.400491 34.56 
" clip-path="url(#p60880e0bb3)" style="fill: none; stroke: #dad8d7; stroke-opacity: 0.5; stroke-width: 0.8; stroke-linecap: square"/>
     </g>
     <g id="line2d_30">
      <g>
       <use xlink:href="#mceda95fc60" x="877.400491" y="256.32" style="stroke: #000000; stroke-width: 0.8"/>
      </g>
     </g>
     <g id="text_15">
      <!-- 140% -->
      <g transform="translate(863.10596 270.918437) scale(0.1 -0.1)">
       <use xlink:href="#DejaVuSans-31"/>
       <use xlink:href="#DejaVuSans-34" x="63.623047"/>
       <use xlink:href="#DejaVuSans-30" x="127.246094"/>
       <use xlink:href="#DejaVuSans-25" x="190.869141"/>
      </g>
     </g>
    </g>
    <g id="xtick_16">
     <g id="line2d_31">
      <path d="M 928.813268 256.32 
L 928.813268 34.56 
" clip-path="url(#p60880e0bb3)" style="fill: none; stroke: #dad8d7; stroke-opacity: 0.5; stroke-width: 0.8; stroke-linecap: square"/>
     </g>
     <g id="line2d_32">
      <g>
       <use xlink:href="#mceda95fc60" x="928.813268" y="256.32" style="stroke: #000000; stroke-width: 0.8"/>
      </g>
     </g>
     <g id="text_16">
      <!-- 150%+ -->
      <g transform="translate(910.328893 270.918437) scale(0.1 -0.1)">
       <defs>
        <path id="DejaVuSans-2b" d="M 2944 4013 
L 2944 2272 
L 4684 2272 
L 4684 1741 
L 2944 1741 
L 2944 0 
L 2419 0 
L 2419 1741 
L 678 1741 
L 678 2272 
L 2419 2272 
L 2419 4013 
L 2944 4013 
z
" transform="scale(0.015625)"/>
       </defs>
       <use xlink:href="#DejaVuSans-31"/>
       <use xlink:href="#DejaVuSans-35" x="63.623047"/>
       <use xlink:href="#DejaVuSans-30" x="127.246094"/>
       <use xlink:href="#DejaVuSans-25" x="190.869141"/>
       <use xlink:href="#DejaVuSans-2b" x="285.888672"/>
      </g>
     </g>
    </g>
    <g id="text_17">
     <!-- Staked RPL vs borrowed ETH -->
     <g transform="translate(481.624219 284.596563) scale(0.1 -0.1)">
      <defs>
       <path id="DejaVuSans-53" d="M 3425 4513 
L 3425 3897 
Q 3066 4069 2747 4153 
Q 2428 4238 2131 4238 
Q 1616 4238 1336 4038 
Q 1056 3838 1056 3469 
Q 1056 3159 1242 3001 
Q 1428 2844 1947 2747 
L 2328 2669 
Q 3034 2534 3370 2195 
Q 3706 1856 3706 1288 
Q 3706 609 3251 259 
Q 2797 -91 1919 -91 
Q 1588 -91 1214 -16 
Q 841 59 441 206 
L 441 856 
Q 825 641 1194 531 
Q 1563 422 1919 422 
Q 2459 422 2753 634 
Q 3047 847 3047 1241 
Q 3047 1584 2836 1778 
Q 2625 1972 2144 2069 
L 1759 2144 
Q 1053 2284 737 2584 
Q 422 2884 422 3419 
Q 422 4038 858 4394 
Q 1294 4750 2059 4750 
Q 2388 4750 2728 4690 
Q 3069 4631 3425 4513 
z
" transform="scale(0.015625)"/>
       <path id="DejaVuSans-74" d="M 1172 4494 
L 1172 3500 
L 2356 3500 
L 2356 3053 
L 1172 3053 
L 1172 1153 
Q 1172 725 1289 603 
Q 1406 481 1766 481 
L 2356 481 
L 2356 0 
L 1766 0 
Q 1100 0 847 248 
Q 594 497 594 1153 
L 594 3053 
L 172 3053 
L 172 3500 
L 594 3500 
L 594 4494 
L 1172 4494 
z
" transform="scale(0.015625)"/>
       <path id="DejaVuSans-61" d="M 2194 1759 
Q 1497 1759 1228 1600 
Q 959 1441 959 1056 
Q 959 750 1161 570 
Q 1363 391 1709 391 
Q 2188 391 2477 730 
Q 2766 1069 2766 1631 
L 2766 1759 
L 2194 1759 
z
M 3341 1997 
L 3341 0 
L 2766 0 
L 2766 531 
Q 2569 213 2275 61 
Q 1981 -91 1556 -91 
Q 1019 -91 701 211 
Q 384 513 384 1019 
Q 384 1609 779 1909 
Q 1175 2209 1959 2209 
L 2766 2209 
L 2766 2266 
Q 2766 2663 2505 2880 
Q 2244 3097 1772 3097 
Q 1472 3097 1187 3025 
Q 903 2953 641 2809 
L 641 3341 
Q 956 3463 1253 3523 
Q 1550 3584 1831 3584 
Q 2591 3584 2966 3190 
Q 3341 2797 3341 1997 
z
" transform="scale(0.015625)"/>
       <path id="DejaVuSans-6b" d="M 581 4863 
L 1159 4863 
L 1159 1991 
L 2875 3500 
L 3609 3500 
L 1753 1863 
L 3688 0 
L 2938 0 
L 1159 1709 
L 1159 0 
L 581 0 
L 581 4863 
z
" transform="scale(0.015625)"/>
       <path id="DejaVuSans-65" d="M 3597 1894 
L 3597 1613 
L 953 1613 
Q 991 1019 1311 708 
Q 1631 397 2203 397 
Q 2534 397 2845 478 
Q 3156 559 3463 722 
L 3463 178 
Q 3153 47 2828 -22 
Q 2503 -91 2169 -91 
Q 1331 -91 842 396 
Q 353 884 353 1716 
Q 353 2575 817 3079 
Q 1281 3584 2069 3584 
Q 2775 3584 3186 3129 
Q 3597 2675 3597 1894 
z
M 3022 2063 
Q 3016 2534 2758 2815 
Q 2500 3097 2075 3097 
Q 1594 3097 1305 2825 
Q 1016 2553 972 2059 
L 3022 2063 
z
" transform="scale(0.015625)"/>
       <path id="DejaVuSans-64" d="M 2906 2969 
L 2906 4863 
L 3481 4863 
L 3481 0 
L 2906 0 
L 2906 525 
Q 2725 213 2448 61 
Q 2172 -91 1784 -91 
Q 1150 -91 751 415 
Q 353 922 353 1747 
Q 353 2572 751 3078 
Q 1150 3584 1784 3584 
Q 2172 3584 2448 3432 
Q 2725 3281 2906 2969 
z
M 947 1747 
Q 947 1113 1208 752 
Q 1469 391 1925 391 
Q 2381 391 2643 752 
Q 2906 1113 2906 1747 
Q 2906 2381 2643 2742 
Q 2381 3103 1925 3103 
Q 1469 3103 1208 2742 
Q 947 2381 947 1747 
z
" transform="scale(0.015625)"/>
       <path id="DejaVuSans-20" transform="scale(0.015625)"/>
       <path id="DejaVuSans-52" d="M 2841 2188 
Q 3044 2119 3236 1894 
Q 3428 1669 3622 1275 
L 4263 0 
L 3584 0 
L 2988 1197 
Q 2756 1666 2539 1819 
Q 2322 1972 1947 1972 
L 1259 1972 
L 1259 0 
L 628 0 
L 628 4666 
L 2053 4666 
Q 2853 4666 3247 4331 
Q 3641 3997 3641 3322 
Q 3641 2881 3436 2590 
Q 3231 2300 2841 2188 
z
M 1259 4147 
L 1259 2491 
L 2053 2491 
Q 2509 2491 2742 2702 
Q 2975 2913 2975 3322 
Q 2975 3731 2742 3939 
Q 2509 4147 2053 4147 
L 1259 4147 
z
" transform="scale(0.015625)"/>
       <path id="DejaVuSans-50" d="M 1259 4147 
L 1259 2394 
L 2053 2394 
Q 2494 2394 2734 2622 
Q 2975 2850 2975 3272 
Q 2975 3691 2734 3919 
Q 2494 4147 2053 4147 
L 1259 4147 
z
M 628 4666 
L 2053 4666 
Q 2838 4666 3239 4311 
Q 3641 3956 3641 3272 
Q 3641 2581 3239 2228 
Q 2838 1875 2053 1875 
L 1259 1875 
L 1259 0 
L 628 0 
L 628 4666 
z
" transform="scale(0.015625)"/>
       <path id="DejaVuSans-4c" d="M 628 4666 
L 1259 4666 
L 1259 531 
L 3531 531 
L 3531 0 
L 628 0 
L 628 4666 
z
" transform="scale(0.015625)"/>
       <path id="DejaVuSans-76" d="M 191 3500 
L 800 3500 
L 1894 563 
L 2988 3500 
L 3597 3500 
L 2284 0 
L 1503 0 
L 191 3500 
z
" transform="scale(0.015625)"/>
       <path id="DejaVuSans-73" d="M 2834 3397 
L 2834 2853 
Q 2591 2978 2328 3040 
Q 2066 3103 1784 3103 
Q 1356 3103 1142 2972 
Q 928 2841 928 2578 
Q 928 2378 1081 2264 
Q 1234 2150 1697 2047 
L 1894 2003 
Q 2506 1872 2764 1633 
Q 3022 1394 3022 966 
Q 3022 478 2636 193 
Q 2250 -91 1575 -91 
Q 1294 -91 989 -36 
Q 684 19 347 128 
L 347 722 
Q 666 556 975 473 
Q 1284 391 1588 391 
Q 1994 391 2212 530 
Q 2431 669 2431 922 
Q 2431 1156 2273 1281 
Q 2116 1406 1581 1522 
L 1381 1569 
Q 847 1681 609 1914 
Q 372 2147 372 2553 
Q 372 3047 722 3315 
Q 1072 3584 1716 3584 
Q 2034 3584 2315 3537 
Q 2597 3491 2834 3397 
z
" transform="scale(0.015625)"/>
       <path id="DejaVuSans-62" d="M 3116 1747 
Q 3116 2381 2855 2742 
Q 2594 3103 2138 3103 
Q 1681 3103 1420 2742 
Q 1159 2381 1159 1747 
Q 1159 1113 1420 752 
Q 1681 391 2138 391 
Q 2594 391 2855 752 
Q 3116 1113 3116 1747 
z
M 1159 2969 
Q 1341 3281 1617 3432 
Q 1894 3584 2278 3584 
Q 2916 3584 3314 3078 
Q 3713 2572 3713 1747 
Q 3713 922 3314 415 
Q 2916 -91 2278 -91 
Q 1894 -91 1617 61 
Q 1341 213 1159 525 
L 1159 0 
L 581 0 
L 581 4863 
L 1159 4863 
L 1159 2969 
z
" transform="scale(0.015625)"/>
       <path id="DejaVuSans-6f" d="M 1959 3097 
Q 1497 3097 1228 2736 
Q 959 2375 959 1747 
Q 959 1119 1226 758 
Q 1494 397 1959 397 
Q 2419 397 2687 759 
Q 2956 1122 2956 1747 
Q 2956 2369 2687 2733 
Q 2419 3097 1959 3097 
z
M 1959 3584 
Q 2709 3584 3137 3096 
Q 3566 2609 3566 1747 
Q 3566 888 3137 398 
Q 2709 -91 1959 -91 
Q 1206 -91 779 398 
Q 353 888 353 1747 
Q 353 2609 779 3096 
Q 1206 3584 1959 3584 
z
" transform="scale(0.015625)"/>
       <path id="DejaVuSans-72" d="M 2631 2963 
Q 2534 3019 2420 3045 
Q 2306 3072 2169 3072 
Q 1681 3072 1420 2755 
Q 1159 2438 1159 1844 
L 1159 0 
L 581 0 
L 581 3500 
L 1159 3500 
L 1159 2956 
Q 1341 3275 1631 3429 
Q 1922 3584 2338 3584 
Q 2397 3584 2469 3576 
Q 2541 3569 2628 3553 
L 2631 2963 
z
" transform="scale(0.015625)"/>
       <path id="DejaVuSans-77" d="M 269 3500 
L 844 3500 
L 1563 769 
L 2278 3500 
L 2956 3500 
L 3675 769 
L 4391 3500 
L 4966 3500 
L 4050 0 
L 3372 0 
L 2619 2869 
L 1863 0 
L 1184 0 
L 269 3500 
z
" transform="scale(0.015625)"/>
       <path id="DejaVuSans-45" d="M 628 4666 
L 3578 4666 
L 3578 4134 
L 1259 4134 
L 1259 2753 
L 3481 2753 
L 3481 2222 
L 1259 2222 
L 1259 531 
L 3634 531 
L 3634 0 
L 628 0 
L 628 4666 
z
" transform="scale(0.015625)"/>
       <path id="DejaVuSans-54" d="M -19 4666 
L 3928 4666 
L 3928 4134 
L 2272 4134 
L 2272 0 
L 1638 0 
L 1638 4134 
L -19 4134 
L -19 4666 
z
" transform="scale(0.015625)"/>
       <path id="DejaVuSans-48" d="M 628 4666 
L 1259 4666 
L 1259 2753 
L 3553 2753 
L 3553 4666 
L 4184 4666 
L 4184 0 
L 3553 0 
L 3553 2222 
L 1259 2222 
L 1259 0 
L 628 0 
L 628 4666 
z
" transform="scale(0.015625)"/>
      </defs>
      <use xlink:href="#DejaVuSans-53"/>
      <use xlink:href="#DejaVuSans-74" x="63.476562"/>
      <use xlink:href="#DejaVuSans-61" x="102.685547"/>
      <use xlink:href="#DejaVuSans-6b" x="163.964844"/>
      <use xlink:href="#DejaVuSans-65" x="218.25"/>
      <use xlink:href="#DejaVuSans-64" x="279.773438"/>
      <use xlink:href="#DejaVuSans-20" x="343.25"/>
      <use xlink:href="#DejaVuSans-52" x="375.037109"/>
      <use xlink:href="#DejaVuSans-50" x="444.519531"/>
      <use xlink:href="#DejaVuSans-4c" x="504.822266"/>
      <use xlink:href="#DejaVuSans-20" x="560.535156"/>
      <use xlink:href="#DejaVuSans-76" x="592.322266"/>
      <use xlink:href="#DejaVuSans-73" x="651.501953"/>
      <use xlink:href="#DejaVuSans-20" x="703.601562"/>
      <use xlink:href="#DejaVuSans-62" x="735.388672"/>
      <use xlink:href="#DejaVuSans-6f" x="798.865234"/>
      <use xlink:href="#DejaVuSans-72" x="860.046875"/>
      <use xlink:href="#DejaVuSans-72" x="899.410156"/>
      <use xlink:href="#DejaVuSans-6f" x="938.273438"/>
      <use xlink:href="#DejaVuSans-77" x="999.455078"/>
      <use xlink:href="#DejaVuSans-65" x="1081.242188"/>
      <use xlink:href="#DejaVuSans-64" x="1142.765625"/>
      <use xlink:href="#DejaVuSans-20" x="1206.242188"/>
      <use xlink:href="#DejaVuSans-45" x="1238.029297"/>
      <use xlink:href="#DejaVuSans-54" x="1301.212891"/>
      <use xlink:href="#DejaVuSans-48" x="1362.296875"/>
     </g>
    </g>
   </g>
   <g id="matplotlib.axis_2">
    <g id="ytick_1">
     <g id="line2d_33">
      <path d="M 135 256.32 
L 972 256.32 
" clip-path="url(#p60880e0bb3)" style="fill: none; stroke: #dad8d7; stroke-opacity: 0.5; stroke-width: 0.8; stroke-linecap: square"/>
     </g>
     <g id="line2d_34">
      <defs>
       <path id="maa64ff5e48" d="M 0 0 
L -3.5 0 
" style="stroke: #000000; stroke-width: 0.8"/>
      </defs>
      <g>
       <use xlink:href="#maa64ff5e48" x="135" y="256.32" style="stroke: #000000; stroke-width: 0.8"/>
      </g>
     </g>
     <g id="text_18">
      <!-- Ξ0 -->
      <g transform="translate(115.31875 260.119219) scale(0.1 -0.1)">
       <defs>
        <path id="DejaVuSans-39e" d="M 956 2753 
L 3178 2753 
L 3178 2222 
L 956 2222 
L 956 2753 
z
M 628 4666 
L 3506 4666 
L 3506 4134 
L 628 4134 
L 628 4666 
z
M 628 531 
L 3506 531 
L 3506 0 
L 628 0 
L 628 531 
z
" transform="scale(0.015625)"/>
       </defs>
       <use xlink:href="#DejaVuSans-39e"/>
       <use xlink:href="#DejaVuSans-30" x="63.183594"/>
      </g>
     </g>
    </g>
    <g id="ytick_2">
     <g id="line2d_35">
      <path d="M 135 212.466179 
L 972 212.466179 
" clip-path="url(#p60880e0bb3)" style="fill: none; stroke: #dad8d7; stroke-opacity: 0.5; stroke-width: 0.8; stroke-linecap: square"/>
     </g>
     <g id="line2d_36">
      <g>
       <use xlink:href="#maa64ff5e48" x="135" y="212.466179" style="stroke: #000000; stroke-width: 0.8"/>
      </g>
     </g>
     <g id="text_19">
      <!-- Ξ5,000 -->
      <g transform="translate(93.053125 216.265398) scale(0.1 -0.1)">
       <defs>
        <path id="DejaVuSans-2c" d="M 750 794 
L 1409 794 
L 1409 256 
L 897 -744 
L 494 -744 
L 750 256 
L 750 794 
z
" transform="scale(0.015625)"/>
       </defs>
       <use xlink:href="#DejaVuSans-39e"/>
       <use xlink:href="#DejaVuSans-35" x="63.183594"/>
       <use xlink:href="#DejaVuSans-2c" x="126.806641"/>
       <use xlink:href="#DejaVuSans-30" x="158.59375"/>
       <use xlink:href="#DejaVuSans-30" x="222.216797"/>
       <use xlink:href="#DejaVuSans-30" x="285.839844"/>
      </g>
     </g>
    </g>
    <g id="ytick_3">
     <g id="line2d_37">
      <path d="M 135 168.612359 
L 972 168.612359 
" clip-path="url(#p60880e0bb3)" style="fill: none; stroke: #dad8d7; stroke-opacity: 0.5; stroke-width: 0.8; stroke-linecap: square"/>
     </g>
     <g id="line2d_38">
      <g>
       <use xlink:href="#maa64ff5e48" x="135" y="168.612359" style="stroke: #000000; stroke-width: 0.8"/>
      </g>
     </g>
     <g id="text_20">
      <!-- Ξ10,000 -->
      <g transform="translate(86.690625 172.411578) scale(0.1 -0.1)">
       <use xlink:href="#DejaVuSans-39e"/>
       <use xlink:href="#DejaVuSans-31" x="63.183594"/>
       <use xlink:href="#DejaVuSans-30" x="126.806641"/>
       <use xlink:href="#DejaVuSans-2c" x="190.429688"/>
       <use xlink:href="#DejaVuSans-30" x="222.216797"/>
       <use xlink:href="#DejaVuSans-30" x="285.839844"/>
       <use xlink:href="#DejaVuSans-30" x="349.462891"/>
      </g>
     </g>
    </g>
    <g id="ytick_4">
     <g id="line2d_39">
      <path d="M 135 124.758538 
L 972 124.758538 
" clip-path="url(#p60880e0bb3)" style="fill: none; stroke: #dad8d7; stroke-opacity: 0.5; stroke-width: 0.8; stroke-linecap: square"/>
     </g>
     <g id="line2d_40">
      <g>
       <use xlink:href="#maa64ff5e48" x="135" y="124.758538" style="stroke: #000000; stroke-width: 0.8"/>
      </g>
     </g>
     <g id="text_21">
      <!-- Ξ15,000 -->
      <g transform="translate(86.690625 128.557757) scale(0.1 -0.1)">
       <use xlink:href="#DejaVuSans-39e"/>
       <use xlink:href="#DejaVuSans-31" x="63.183594"/>
       <use xlink:href="#DejaVuSans-35" x="126.806641"/>
       <use xlink:href="#DejaVuSans-2c" x="190.429688"/>
       <use xlink:href="#DejaVuSans-30" x="222.216797"/>
       <use xlink:href="#DejaVuSans-30" x="285.839844"/>
       <use xlink:href="#DejaVuSans-30" x="349.462891"/>
      </g>
     </g>
    </g>
    <g id="ytick_5">
     <g id="line2d_41">
      <path d="M 135 80.904718 
L 972 80.904718 
" clip-path="url(#p60880e0bb3)" style="fill: none; stroke: #dad8d7; stroke-opacity: 0.5; stroke-width: 0.8; stroke-linecap: square"/>
     </g>
     <g id="line2d_42">
      <g>
       <use xlink:href="#maa64ff5e48" x="135" y="80.904718" style="stroke: #000000; stroke-width: 0.8"/>
      </g>
     </g>
     <g id="text_22">
      <!-- Ξ20,000 -->
      <g transform="translate(86.690625 84.703936) scale(0.1 -0.1)">
       <use xlink:href="#DejaVuSans-39e"/>
       <use xlink:href="#DejaVuSans-32" x="63.183594"/>
       <use xlink:href="#DejaVuSans-30" x="126.806641"/>
       <use xlink:href="#DejaVuSans-2c" x="190.429688"/>
       <use xlink:href="#DejaVuSans-30" x="222.216797"/>
       <use xlink:href="#DejaVuSans-30" x="285.839844"/>
       <use xlink:href="#DejaVuSans-30" x="349.462891"/>
      </g>
     </g>
    </g>
    <g id="ytick_6">
     <g id="line2d_43">
      <path d="M 135 37.050897 
L 972 37.050897 
" clip-path="url(#p60880e0bb3)" style="fill: none; stroke: #dad8d7; stroke-opacity: 0.5; stroke-width: 0.8; stroke-linecap: square"/>
     </g>
     <g id="line2d_44">
      <g>
       <use xlink:href="#maa64ff5e48" x="135" y="37.050897" style="stroke: #000000; stroke-width: 0.8"/>
      </g>
     </g>
     <g id="text_23">
      <!-- Ξ25,000 -->
      <g transform="translate(86.690625 40.850116) scale(0.1 -0.1)">
       <use xlink:href="#DejaVuSans-39e"/>
       <use xlink:href="#DejaVuSans-32" x="63.183594"/>
       <use xlink:href="#DejaVuSans-35" x="126.806641"/>
       <use xlink:href="#DejaVuSans-2c" x="190.429688"/>
       <use xlink:href="#DejaVuSans-30" x="222.216797"/>
       <use xlink:href="#DejaVuSans-30" x="285.839844"/>
       <use xlink:href="#DejaVuSans-30" x="349.462891"/>
      </g>
     </g>
    </g>
    <g id="text_24">
     <!-- Borrowed ETH -->
     <g transform="translate(80.610937 180.8025) rotate(-90) scale(0.1 -0.1)">
      <defs>
       <path id="DejaVuSans-42" d="M 1259 2228 
L 1259 519 
L 2272 519 
Q 2781 519 3026 730 
Q 3272 941 3272 1375 
Q 3272 1813 3026 2020 
Q 2781 2228 2272 2228 
L 1259 2228 
z
M 1259 4147 
L 1259 2741 
L 2194 2741 
Q 2656 2741 2882 2914 
Q 3109 3088 3109 3444 
Q 3109 3797 2882 3972 
Q 2656 4147 2194 4147 
L 1259 4147 
z
M 628 4666 
L 2241 4666 
Q 2963 4666 3353 4366 
Q 3744 4066 3744 3513 
Q 3744 3084 3544 2831 
Q 3344 2578 2956 2516 
Q 3422 2416 3680 2098 
Q 3938 1781 3938 1306 
Q 3938 681 3513 340 
Q 3088 0 2303 0 
L 628 0 
L 628 4666 
z
" transform="scale(0.015625)"/>
      </defs>
      <use xlink:href="#DejaVuSans-42"/>
      <use xlink:href="#DejaVuSans-6f" x="68.603516"/>
      <use xlink:href="#DejaVuSans-72" x="129.785156"/>
      <use xlink:href="#DejaVuSans-72" x="169.148438"/>
      <use xlink:href="#DejaVuSans-6f" x="208.011719"/>
      <use xlink:href="#DejaVuSans-77" x="269.193359"/>
      <use xlink:href="#DejaVuSans-65" x="350.980469"/>
      <use xlink:href="#DejaVuSans-64" x="412.503906"/>
      <use xlink:href="#DejaVuSans-20" x="475.980469"/>
      <use xlink:href="#DejaVuSans-45" x="507.767578"/>
      <use xlink:href="#DejaVuSans-54" x="570.951172"/>
      <use xlink:href="#DejaVuSans-48" x="632.035156"/>
     </g>
    </g>
   </g>
   <g id="patch_3">
    <path d="M 173.045455 256.32 
L 183.32801 256.32 
L 183.32801 165.244385 
L 173.045455 165.244385 
z
" clip-path="url(#p60880e0bb3)" style="fill: #f7b852"/>
   </g>
   <g id="patch_4">
    <path d="M 183.32801 256.32 
L 193.610565 256.32 
L 193.610565 219.272292 
L 183.32801 219.272292 
z
" clip-path="url(#p60880e0bb3)" style="fill: #f7b852"/>
   </g>
   <g id="patch_5">
    <path d="M 193.610565 256.32 
L 203.89312 256.32 
L 203.89312 45.12 
L 193.610565 45.12 
z
" clip-path="url(#p60880e0bb3)" style="fill: #f7b852"/>
   </g>
   <g id="patch_6">
    <path d="M 203.89312 256.32 
L 214.175676 256.32 
L 214.175676 137.458605 
L 203.89312 137.458605 
z
" clip-path="url(#p60880e0bb3)" style="fill: #fa9b02"/>
   </g>
   <g id="patch_7">
    <path d="M 214.175676 256.32 
L 224.458231 256.32 
L 224.458231 158.929435 
L 214.175676 158.929435 
z
" clip-path="url(#p60880e0bb3)" style="fill: #fa9b02"/>
   </g>
   <g id="patch_8">
    <path d="M 224.458231 256.32 
L 234.740786 256.32 
L 234.740786 239.059136 
L 224.458231 239.059136 
z
" clip-path="url(#p60880e0bb3)" style="fill: #fa9b02"/>
   </g>
   <g id="patch_9">
    <path d="M 234.740786 256.32 
L 245.023342 256.32 
L 245.023342 241.304452 
L 234.740786 241.304452 
z
" clip-path="url(#p60880e0bb3)" style="fill: #fa9b02"/>
   </g>
   <g id="patch_10">
    <path d="M 245.023342 256.32 
L 255.305897 256.32 
L 255.305897 248.180731 
L 245.023342 248.180731 
z
" clip-path="url(#p60880e0bb3)" style="fill: #fa9b02"/>
   </g>
   <g id="patch_11">
    <path d="M 255.305897 256.32 
L 265.588452 256.32 
L 265.588452 249.724385 
L 255.305897 249.724385 
z
" clip-path="url(#p60880e0bb3)" style="fill: #fa9b02"/>
   </g>
   <g id="patch_12">
    <path d="M 265.588452 256.32 
L 275.871007 256.32 
L 275.871007 241.585116 
L 265.588452 241.585116 
z
" clip-path="url(#p60880e0bb3)" style="fill: #fa9b02"/>
   </g>
   <g id="patch_13">
    <path d="M 275.871007 256.32 
L 286.153563 256.32 
L 286.153563 252.811694 
L 275.871007 252.811694 
z
" clip-path="url(#p60880e0bb3)" style="fill: #fa9b02"/>
   </g>
   <g id="patch_14">
    <path d="M 286.153563 256.32 
L 296.436118 256.32 
L 296.436118 254.074684 
L 286.153563 254.074684 
z
" clip-path="url(#p60880e0bb3)" style="fill: #fa9b02"/>
   </g>
   <g id="patch_15">
    <path d="M 296.436118 256.32 
L 306.718673 256.32 
L 306.718673 249.022724 
L 296.436118 249.022724 
z
" clip-path="url(#p60880e0bb3)" style="fill: #fa9b02"/>
   </g>
   <g id="patch_16">
    <path d="M 306.718673 256.32 
L 317.001229 256.32 
L 317.001229 251.689037 
L 306.718673 251.689037 
z
" clip-path="url(#p60880e0bb3)" style="fill: #fa9b02"/>
   </g>
   <g id="patch_17">
    <path d="M 317.001229 256.32 
L 327.283784 256.32 
L 327.283784 254.636013 
L 317.001229 254.636013 
z
" clip-path="url(#p60880e0bb3)" style="fill: #fa9b02"/>
   </g>
   <g id="patch_18">
    <path d="M 327.283784 256.32 
L 337.566339 256.32 
L 337.566339 254.776346 
L 327.283784 254.776346 
z
" clip-path="url(#p60880e0bb3)" style="fill: #fa9b02"/>
   </g>
   <g id="patch_19">
    <path d="M 337.566339 256.32 
L 347.848894 256.32 
L 347.848894 249.303389 
L 337.566339 249.303389 
z
" clip-path="url(#p60880e0bb3)" style="fill: #fa9b02"/>
   </g>
   <g id="patch_20">
    <path d="M 347.848894 256.32 
L 358.13145 256.32 
L 358.13145 229.516545 
L 347.848894 229.516545 
z
" clip-path="url(#p60880e0bb3)" style="fill: #fa9b02"/>
   </g>
   <g id="patch_21">
    <path d="M 358.13145 256.32 
L 368.414005 256.32 
L 368.414005 250.987375 
L 358.13145 250.987375 
z
" clip-path="url(#p60880e0bb3)" style="fill: #fa9b02"/>
   </g>
   <g id="patch_22">
    <path d="M 368.414005 256.32 
L 378.69656 256.32 
L 378.69656 247.759734 
L 368.414005 247.759734 
z
" clip-path="url(#p60880e0bb3)" style="fill: #fa9b02"/>
   </g>
   <g id="patch_23">
    <path d="M 378.69656 256.32 
L 388.979115 256.32 
L 388.979115 253.092359 
L 378.69656 253.092359 
z
" clip-path="url(#p60880e0bb3)" style="fill: #fa9b02"/>
   </g>
   <g id="patch_24">
    <path d="M 388.979115 256.32 
L 399.261671 256.32 
L 399.261671 221.938605 
L 388.979115 221.938605 
z
" clip-path="url(#p60880e0bb3)" style="fill: #fa9b02"/>
   </g>
   <g id="patch_25">
    <path d="M 399.261671 256.32 
L 409.544226 256.32 
L 409.544226 253.79402 
L 399.261671 253.79402 
z
" clip-path="url(#p60880e0bb3)" style="fill: #fa9b02"/>
   </g>
   <g id="patch_26">
    <path d="M 409.544226 256.32 
L 419.826781 256.32 
L 419.826781 253.79402 
L 409.544226 253.79402 
z
" clip-path="url(#p60880e0bb3)" style="fill: #fa9b02"/>
   </g>
   <g id="patch_27">
    <path d="M 419.826781 256.32 
L 430.109337 256.32 
L 430.109337 176.190299 
L 419.826781 176.190299 
z
" clip-path="url(#p60880e0bb3)" style="fill: #fa9b02"/>
   </g>
   <g id="patch_28">
    <path d="M 430.109337 256.32 
L 440.391892 256.32 
L 440.391892 254.636013 
L 430.109337 254.636013 
z
" clip-path="url(#p60880e0bb3)" style="fill: #fa9b02"/>
   </g>
   <g id="patch_29">
    <path d="M 440.391892 256.32 
L 450.674447 256.32 
L 450.674447 256.179668 
L 440.391892 256.179668 
z
" clip-path="url(#p60880e0bb3)" style="fill: #fa9b02"/>
   </g>
   <g id="patch_30">
    <path d="M 450.674447 256.32 
L 460.957002 256.32 
L 460.957002 255.618339 
L 450.674447 255.618339 
z
" clip-path="url(#p60880e0bb3)" style="fill: #fa9b02"/>
   </g>
   <g id="patch_31">
    <path d="M 460.957002 256.32 
L 471.239558 256.32 
L 471.239558 256.179668 
L 460.957002 256.179668 
z
" clip-path="url(#p60880e0bb3)" style="fill: #fa9b02"/>
   </g>
   <g id="patch_32">
    <path d="M 471.239558 256.32 
L 481.522113 256.32 
L 481.522113 251.26804 
L 471.239558 251.26804 
z
" clip-path="url(#p60880e0bb3)" style="fill: #fa9b02"/>
   </g>
   <g id="patch_33">
    <path d="M 481.522113 256.32 
L 491.804668 256.32 
L 491.804668 212.396013 
L 481.522113 212.396013 
z
" clip-path="url(#p60880e0bb3)" style="fill: #fa9b02"/>
   </g>
   <g id="patch_34">
    <path d="M 491.804668 256.32 
L 502.087224 256.32 
L 502.087224 255.337674 
L 491.804668 255.337674 
z
" clip-path="url(#p60880e0bb3)" style="fill: #fa9b02"/>
   </g>
   <g id="patch_35">
    <path d="M 502.087224 256.32 
L 512.369779 256.32 
L 512.369779 255.899003 
L 502.087224 255.899003 
z
" clip-path="url(#p60880e0bb3)" style="fill: #fa9b02"/>
   </g>
   <g id="patch_36">
    <path d="M 512.369779 256.32 
L 522.652334 256.32 
L 522.652334 216.886645 
L 512.369779 216.886645 
z
" clip-path="url(#p60880e0bb3)" style="fill: #fa9b02"/>
   </g>
   <g id="patch_37">
    <path d="M 522.652334 256.32 
L 532.934889 256.32 
L 532.934889 254.495681 
L 522.652334 254.495681 
z
" clip-path="url(#p60880e0bb3)" style="fill: #fa9b02"/>
   </g>
   <g id="patch_38">
    <path d="M 532.934889 256.32 
L 543.217445 256.32 
L 543.217445 87.36 
L 532.934889 87.36 
z
" clip-path="url(#p60880e0bb3)" style="fill: #fa9b02"/>
   </g>
   <g id="patch_39">
    <path d="M 543.217445 256.32 
L 553.5 256.32 
L 553.5 255.758671 
L 543.217445 255.758671 
z
" clip-path="url(#p60880e0bb3)" style="fill: #fa9b02"/>
   </g>
   <g id="patch_40">
    <path d="M 553.5 256.32 
L 563.782555 256.32 
L 563.782555 256.32 
L 553.5 256.32 
z
" clip-path="url(#p60880e0bb3)" style="fill: #fa9b02"/>
   </g>
   <g id="patch_41">
    <path d="M 563.782555 256.32 
L 574.065111 256.32 
L 574.065111 255.899003 
L 563.782555 255.899003 
z
" clip-path="url(#p60880e0bb3)" style="fill: #fa9b02"/>
   </g>
   <g id="patch_42">
    <path d="M 574.065111 256.32 
L 584.347666 256.32 
L 584.347666 256.179668 
L 574.065111 256.179668 
z
" clip-path="url(#p60880e0bb3)" style="fill: #fa9b02"/>
   </g>
   <g id="patch_43">
    <path d="M 584.347666 256.32 
L 594.630221 256.32 
L 594.630221 256.179668 
L 584.347666 256.179668 
z
" clip-path="url(#p60880e0bb3)" style="fill: #fa9b02"/>
   </g>
   <g id="patch_44">
    <path d="M 594.630221 256.32 
L 604.912776 256.32 
L 604.912776 256.32 
L 594.630221 256.32 
z
" clip-path="url(#p60880e0bb3)" style="fill: #fa9b02"/>
   </g>
   <g id="patch_45">
    <path d="M 604.912776 256.32 
L 615.195332 256.32 
L 615.195332 256.179668 
L 604.912776 256.179668 
z
" clip-path="url(#p60880e0bb3)" style="fill: #fa9b02"/>
   </g>
   <g id="patch_46">
    <path d="M 615.195332 256.32 
L 625.477887 256.32 
L 625.477887 255.758671 
L 615.195332 255.758671 
z
" clip-path="url(#p60880e0bb3)" style="fill: #fa9b02"/>
   </g>
   <g id="patch_47">
    <path d="M 625.477887 256.32 
L 635.760442 256.32 
L 635.760442 256.32 
L 625.477887 256.32 
z
" clip-path="url(#p60880e0bb3)" style="fill: #fa9b02"/>
   </g>
   <g id="patch_48">
    <path d="M 635.760442 256.32 
L 646.042998 256.32 
L 646.042998 256.32 
L 635.760442 256.32 
z
" clip-path="url(#p60880e0bb3)" style="fill: #fa9b02"/>
   </g>
   <g id="patch_49">
    <path d="M 646.042998 256.32 
L 656.325553 256.32 
L 656.325553 256.32 
L 646.042998 256.32 
z
" clip-path="url(#p60880e0bb3)" style="fill: #fa9b02"/>
   </g>
   <g id="patch_50">
    <path d="M 656.325553 256.32 
L 666.608108 256.32 
L 666.608108 256.32 
L 656.325553 256.32 
z
" clip-path="url(#p60880e0bb3)" style="fill: #fa9b02"/>
   </g>
   <g id="patch_51">
    <path d="M 666.608108 256.32 
L 676.890663 256.32 
L 676.890663 255.618339 
L 666.608108 255.618339 
z
" clip-path="url(#p60880e0bb3)" style="fill: #fa9b02"/>
   </g>
   <g id="patch_52">
    <path d="M 676.890663 256.32 
L 687.173219 256.32 
L 687.173219 255.899003 
L 676.890663 255.899003 
z
" clip-path="url(#p60880e0bb3)" style="fill: #fa9b02"/>
   </g>
   <g id="patch_53">
    <path d="M 687.173219 256.32 
L 697.455774 256.32 
L 697.455774 255.758671 
L 687.173219 255.758671 
z
" clip-path="url(#p60880e0bb3)" style="fill: #fa9b02"/>
   </g>
   <g id="patch_54">
    <path d="M 697.455774 256.32 
L 707.738329 256.32 
L 707.738329 256.039336 
L 697.455774 256.039336 
z
" clip-path="url(#p60880e0bb3)" style="fill: #fa9b02"/>
   </g>
   <g id="patch_55">
    <path d="M 707.738329 256.32 
L 718.020885 256.32 
L 718.020885 249.584053 
L 707.738329 249.584053 
z
" clip-path="url(#p60880e0bb3)" style="fill: #fa9b02"/>
   </g>
   <g id="patch_56">
    <path d="M 718.020885 256.32 
L 728.30344 256.32 
L 728.30344 255.618339 
L 718.020885 255.618339 
z
" clip-path="url(#p60880e0bb3)" style="fill: #fa9b02"/>
   </g>
   <g id="patch_57">
    <path d="M 728.30344 256.32 
L 738.585995 256.32 
L 738.585995 255.758671 
L 728.30344 255.758671 
z
" clip-path="url(#p60880e0bb3)" style="fill: #fa9b02"/>
   </g>
   <g id="patch_58">
    <path d="M 738.585995 256.32 
L 748.86855 256.32 
L 748.86855 256.179668 
L 738.585995 256.179668 
z
" clip-path="url(#p60880e0bb3)" style="fill: #fa9b02"/>
   </g>
   <g id="patch_59">
    <path d="M 748.86855 256.32 
L 759.151106 256.32 
L 759.151106 255.478007 
L 748.86855 255.478007 
z
" clip-path="url(#p60880e0bb3)" style="fill: #fa9b02"/>
   </g>
   <g id="patch_60">
    <path d="M 759.151106 256.32 
L 769.433661 256.32 
L 769.433661 256.32 
L 759.151106 256.32 
z
" clip-path="url(#p60880e0bb3)" style="fill: #fa9b02"/>
   </g>
   <g id="patch_61">
    <path d="M 769.433661 256.32 
L 779.716216 256.32 
L 779.716216 256.179668 
L 769.433661 256.179668 
z
" clip-path="url(#p60880e0bb3)" style="fill: #fa9b02"/>
   </g>
   <g id="patch_62">
    <path d="M 779.716216 256.32 
L 789.998771 256.32 
L 789.998771 256.32 
L 779.716216 256.32 
z
" clip-path="url(#p60880e0bb3)" style="fill: #fa9b02"/>
   </g>
   <g id="patch_63">
    <path d="M 789.998771 256.32 
L 800.281327 256.32 
L 800.281327 256.32 
L 789.998771 256.32 
z
" clip-path="url(#p60880e0bb3)" style="fill: #fa9b02"/>
   </g>
   <g id="patch_64">
    <path d="M 800.281327 256.32 
L 810.563882 256.32 
L 810.563882 256.039336 
L 800.281327 256.039336 
z
" clip-path="url(#p60880e0bb3)" style="fill: #fa9b02"/>
   </g>
   <g id="patch_65">
    <path d="M 810.563882 256.32 
L 820.846437 256.32 
L 820.846437 256.32 
L 810.563882 256.32 
z
" clip-path="url(#p60880e0bb3)" style="fill: #fa9b02"/>
   </g>
   <g id="patch_66">
    <path d="M 820.846437 256.32 
L 831.128993 256.32 
L 831.128993 254.495681 
L 820.846437 254.495681 
z
" clip-path="url(#p60880e0bb3)" style="fill: #fa9b02"/>
   </g>
   <g id="patch_67">
    <path d="M 831.128993 256.32 
L 841.411548 256.32 
L 841.411548 256.32 
L 831.128993 256.32 
z
" clip-path="url(#p60880e0bb3)" style="fill: #fa9b02"/>
   </g>
   <g id="patch_68">
    <path d="M 841.411548 256.32 
L 851.694103 256.32 
L 851.694103 255.758671 
L 841.411548 255.758671 
z
" clip-path="url(#p60880e0bb3)" style="fill: #fa9b02"/>
   </g>
   <g id="patch_69">
    <path d="M 851.694103 256.32 
L 861.976658 256.32 
L 861.976658 255.899003 
L 851.694103 255.899003 
z
" clip-path="url(#p60880e0bb3)" style="fill: #fa9b02"/>
   </g>
   <g id="patch_70">
    <path d="M 861.976658 256.32 
L 872.259214 256.32 
L 872.259214 256.32 
L 861.976658 256.32 
z
" clip-path="url(#p60880e0bb3)" style="fill: #fa9b02"/>
   </g>
   <g id="patch_71">
    <path d="M 872.259214 256.32 
L 882.541769 256.32 
L 882.541769 256.32 
L 872.259214 256.32 
z
" clip-path="url(#p60880e0bb3)" style="fill: #fa9b02"/>
   </g>
   <g id="patch_72">
    <path d="M 882.541769 256.32 
L 892.824324 256.32 
L 892.824324 256.32 
L 882.541769 256.32 
z
" clip-path="url(#p60880e0bb3)" style="fill: #fa9b02"/>
   </g>
   <g id="patch_73">
    <path d="M 892.824324 256.32 
L 903.10688 256.32 
L 903.10688 256.179668 
L 892.824324 256.179668 
z
" clip-path="url(#p60880e0bb3)" style="fill: #fa9b02"/>
   </g>
   <g id="patch_74">
    <path d="M 903.10688 256.32 
L 913.389435 256.32 
L 913.389435 256.32 
L 903.10688 256.32 
z
" clip-path="url(#p60880e0bb3)" style="fill: #fa9b02"/>
   </g>
   <g id="patch_75">
    <path d="M 913.389435 256.32 
L 923.67199 256.32 
L 923.67199 256.32 
L 913.389435 256.32 
z
" clip-path="url(#p60880e0bb3)" style="fill: #fa9b02"/>
   </g>
   <g id="patch_76">
    <path d="M 923.67199 256.32 
L 933.954545 256.32 
L 933.954545 255.478007 
L 923.67199 255.478007 
z
" clip-path="url(#p60880e0bb3)" style="fill: #fa9b02"/>
   </g>
   <g id="line2d_45">
    <path d="M 328.729627 256.32 
L 328.729627 34.56 
" clip-path="url(#p60880e0bb3)" style="fill: none; stroke-dasharray: 1.5,2.475; stroke-dashoffset: 0; stroke: #1f77b4; stroke-width: 1.5"/>
   </g>
   <g id="line2d_46">
    <path d="M 228.631823 256.32 
L 228.631823 34.56 
" clip-path="url(#p60880e0bb3)" style="fill: none; stroke-dasharray: 1.5,2.475; stroke-dashoffset: 0; stroke: #1f77b4; stroke-width: 1.5"/>
   </g>
   <g id="patch_77">
    <path d="M 135 256.32 
L 135 34.56 
" style="fill: none; stroke: #000000; stroke-width: 0.8; stroke-linejoin: miter; stroke-linecap: square"/>
   </g>
   <g id="patch_78">
    <path d="M 972 256.32 
L 972 34.56 
" style="fill: none; stroke: #000000; stroke-width: 0.8; stroke-linejoin: miter; stroke-linecap: square"/>
   </g>
   <g id="patch_79">
    <path d="M 135 256.32 
L 972 256.32 
" style="fill: none; stroke: #000000; stroke-width: 0.8; stroke-linejoin: miter; stroke-linecap: square"/>
   </g>
   <g id="patch_80">
    <path d="M 135 34.56 
L 972 34.56 
" style="fill: none; stroke: #000000; stroke-width: 0.8; stroke-linejoin: miter; stroke-linecap: square"/>
   </g>
   <g id="text_25">
    <!-- average -->
    <g transform="translate(340.184023 171.190313) rotate(-90) scale(0.1 -0.1)">
     <defs>
      <path id="DejaVuSans-67" d="M 2906 1791 
Q 2906 2416 2648 2759 
Q 2391 3103 1925 3103 
Q 1463 3103 1205 2759 
Q 947 2416 947 1791 
Q 947 1169 1205 825 
Q 1463 481 1925 481 
Q 2391 481 2648 825 
Q 2906 1169 2906 1791 
z
M 3481 434 
Q 3481 -459 3084 -895 
Q 2688 -1331 1869 -1331 
Q 1566 -1331 1297 -1286 
Q 1028 -1241 775 -1147 
L 775 -588 
Q 1028 -725 1275 -790 
Q 1522 -856 1778 -856 
Q 2344 -856 2625 -561 
Q 2906 -266 2906 331 
L 2906 616 
Q 2728 306 2450 153 
Q 2172 0 1784 0 
Q 1141 0 747 490 
Q 353 981 353 1791 
Q 353 2603 747 3093 
Q 1141 3584 1784 3584 
Q 2172 3584 2450 3431 
Q 2728 3278 2906 2969 
L 2906 3500 
L 3481 3500 
L 3481 434 
z
" transform="scale(0.015625)"/>
     </defs>
     <use xlink:href="#DejaVuSans-61"/>
     <use xlink:href="#DejaVuSans-76" x="61.279297"/>
     <use xlink:href="#DejaVuSans-65" x="120.458984"/>
     <use xlink:href="#DejaVuSans-72" x="181.982422"/>
     <use xlink:href="#DejaVuSans-61" x="223.095703"/>
     <use xlink:href="#DejaVuSans-67" x="284.375"/>
     <use xlink:href="#DejaVuSans-65" x="347.851562"/>
    </g>
   </g>
   <g id="text_26">
    <!-- median -->
    <g transform="translate(240.086219 169.462969) rotate(-90) scale(0.1 -0.1)">
     <defs>
      <path id="DejaVuSans-6d" d="M 3328 2828 
Q 3544 3216 3844 3400 
Q 4144 3584 4550 3584 
Q 5097 3584 5394 3201 
Q 5691 2819 5691 2113 
L 5691 0 
L 5113 0 
L 5113 2094 
Q 5113 2597 4934 2840 
Q 4756 3084 4391 3084 
Q 3944 3084 3684 2787 
Q 3425 2491 3425 1978 
L 3425 0 
L 2847 0 
L 2847 2094 
Q 2847 2600 2669 2842 
Q 2491 3084 2119 3084 
Q 1678 3084 1418 2786 
Q 1159 2488 1159 1978 
L 1159 0 
L 581 0 
L 581 3500 
L 1159 3500 
L 1159 2956 
Q 1356 3278 1631 3431 
Q 1906 3584 2284 3584 
Q 2666 3584 2933 3390 
Q 3200 3197 3328 2828 
z
" transform="scale(0.015625)"/>
      <path id="DejaVuSans-69" d="M 603 3500 
L 1178 3500 
L 1178 0 
L 603 0 
L 603 3500 
z
M 603 4863 
L 1178 4863 
L 1178 4134 
L 603 4134 
L 603 4863 
z
" transform="scale(0.015625)"/>
      <path id="DejaVuSans-6e" d="M 3513 2113 
L 3513 0 
L 2938 0 
L 2938 2094 
Q 2938 2591 2744 2837 
Q 2550 3084 2163 3084 
Q 1697 3084 1428 2787 
Q 1159 2491 1159 1978 
L 1159 0 
L 581 0 
L 581 3500 
L 1159 3500 
L 1159 2956 
Q 1366 3272 1645 3428 
Q 1925 3584 2291 3584 
Q 2894 3584 3203 3211 
Q 3513 2838 3513 2113 
z
" transform="scale(0.015625)"/>
     </defs>
     <use xlink:href="#DejaVuSans-6d"/>
     <use xlink:href="#DejaVuSans-65" x="97.412109"/>
     <use xlink:href="#DejaVuSans-64" x="158.935547"/>
     <use xlink:href="#DejaVuSans-69" x="222.412109"/>
     <use xlink:href="#DejaVuSans-61" x="250.195312"/>
     <use xlink:href="#DejaVuSans-6e" x="311.474609"/>
    </g>
   </g>
   <g id="text_27">
    <!-- 16 ETH Minipools -->
    <g style="opacity: 0.8" transform="translate(485.526719 28.56) scale(0.14 -0.14)">
     <defs>
      <path id="DejaVuSans-Bold-31" d="M 750 831 
L 1813 831 
L 1813 3847 
L 722 3622 
L 722 4441 
L 1806 4666 
L 2950 4666 
L 2950 831 
L 4013 831 
L 4013 0 
L 750 0 
L 750 831 
z
" transform="scale(0.015625)"/>
      <path id="DejaVuSans-Bold-36" d="M 2316 2303 
Q 2000 2303 1842 2098 
Q 1684 1894 1684 1484 
Q 1684 1075 1842 870 
Q 2000 666 2316 666 
Q 2634 666 2792 870 
Q 2950 1075 2950 1484 
Q 2950 1894 2792 2098 
Q 2634 2303 2316 2303 
z
M 3803 4544 
L 3803 3681 
Q 3506 3822 3243 3889 
Q 2981 3956 2731 3956 
Q 2194 3956 1894 3657 
Q 1594 3359 1544 2772 
Q 1750 2925 1990 3001 
Q 2231 3078 2516 3078 
Q 3231 3078 3670 2659 
Q 4109 2241 4109 1563 
Q 4109 813 3618 361 
Q 3128 -91 2303 -91 
Q 1394 -91 895 523 
Q 397 1138 397 2266 
Q 397 3422 980 4083 
Q 1563 4744 2578 4744 
Q 2900 4744 3203 4694 
Q 3506 4644 3803 4544 
z
" transform="scale(0.015625)"/>
      <path id="DejaVuSans-Bold-20" transform="scale(0.015625)"/>
      <path id="DejaVuSans-Bold-45" d="M 588 4666 
L 3834 4666 
L 3834 3756 
L 1791 3756 
L 1791 2888 
L 3713 2888 
L 3713 1978 
L 1791 1978 
L 1791 909 
L 3903 909 
L 3903 0 
L 588 0 
L 588 4666 
z
" transform="scale(0.015625)"/>
      <path id="DejaVuSans-Bold-54" d="M 31 4666 
L 4331 4666 
L 4331 3756 
L 2784 3756 
L 2784 0 
L 1581 0 
L 1581 3756 
L 31 3756 
L 31 4666 
z
" transform="scale(0.015625)"/>
      <path id="DejaVuSans-Bold-48" d="M 588 4666 
L 1791 4666 
L 1791 2888 
L 3566 2888 
L 3566 4666 
L 4769 4666 
L 4769 0 
L 3566 0 
L 3566 1978 
L 1791 1978 
L 1791 0 
L 588 0 
L 588 4666 
z
" transform="scale(0.015625)"/>
      <path id="DejaVuSans-Bold-4d" d="M 588 4666 
L 2119 4666 
L 3181 2169 
L 4250 4666 
L 5778 4666 
L 5778 0 
L 4641 0 
L 4641 3413 
L 3566 897 
L 2803 897 
L 1728 3413 
L 1728 0 
L 588 0 
L 588 4666 
z
" transform="scale(0.015625)"/>
      <path id="DejaVuSans-Bold-69" d="M 538 3500 
L 1656 3500 
L 1656 0 
L 538 0 
L 538 3500 
z
M 538 4863 
L 1656 4863 
L 1656 3950 
L 538 3950 
L 538 4863 
z
" transform="scale(0.015625)"/>
      <path id="DejaVuSans-Bold-6e" d="M 4056 2131 
L 4056 0 
L 2931 0 
L 2931 347 
L 2931 1631 
Q 2931 2084 2911 2256 
Q 2891 2428 2841 2509 
Q 2775 2619 2662 2680 
Q 2550 2741 2406 2741 
Q 2056 2741 1856 2470 
Q 1656 2200 1656 1722 
L 1656 0 
L 538 0 
L 538 3500 
L 1656 3500 
L 1656 2988 
Q 1909 3294 2193 3439 
Q 2478 3584 2822 3584 
Q 3428 3584 3742 3212 
Q 4056 2841 4056 2131 
z
" transform="scale(0.015625)"/>
      <path id="DejaVuSans-Bold-70" d="M 1656 506 
L 1656 -1331 
L 538 -1331 
L 538 3500 
L 1656 3500 
L 1656 2988 
Q 1888 3294 2169 3439 
Q 2450 3584 2816 3584 
Q 3463 3584 3878 3070 
Q 4294 2556 4294 1747 
Q 4294 938 3878 423 
Q 3463 -91 2816 -91 
Q 2450 -91 2169 54 
Q 1888 200 1656 506 
z
M 2400 2772 
Q 2041 2772 1848 2508 
Q 1656 2244 1656 1747 
Q 1656 1250 1848 986 
Q 2041 722 2400 722 
Q 2759 722 2948 984 
Q 3138 1247 3138 1747 
Q 3138 2247 2948 2509 
Q 2759 2772 2400 2772 
z
" transform="scale(0.015625)"/>
      <path id="DejaVuSans-Bold-6f" d="M 2203 2784 
Q 1831 2784 1636 2517 
Q 1441 2250 1441 1747 
Q 1441 1244 1636 976 
Q 1831 709 2203 709 
Q 2569 709 2762 976 
Q 2956 1244 2956 1747 
Q 2956 2250 2762 2517 
Q 2569 2784 2203 2784 
z
M 2203 3584 
Q 3106 3584 3614 3096 
Q 4122 2609 4122 1747 
Q 4122 884 3614 396 
Q 3106 -91 2203 -91 
Q 1297 -91 786 396 
Q 275 884 275 1747 
Q 275 2609 786 3096 
Q 1297 3584 2203 3584 
z
" transform="scale(0.015625)"/>
      <path id="DejaVuSans-Bold-6c" d="M 538 4863 
L 1656 4863 
L 1656 0 
L 538 0 
L 538 4863 
z
" transform="scale(0.015625)"/>
      <path id="DejaVuSans-Bold-73" d="M 3272 3391 
L 3272 2541 
Q 2913 2691 2578 2766 
Q 2244 2841 1947 2841 
Q 1628 2841 1473 2761 
Q 1319 2681 1319 2516 
Q 1319 2381 1436 2309 
Q 1553 2238 1856 2203 
L 2053 2175 
Q 2913 2066 3209 1816 
Q 3506 1566 3506 1031 
Q 3506 472 3093 190 
Q 2681 -91 1863 -91 
Q 1516 -91 1145 -36 
Q 775 19 384 128 
L 384 978 
Q 719 816 1070 734 
Q 1422 653 1784 653 
Q 2113 653 2278 743 
Q 2444 834 2444 1013 
Q 2444 1163 2330 1236 
Q 2216 1309 1875 1350 
L 1678 1375 
Q 931 1469 631 1722 
Q 331 1975 331 2491 
Q 331 3047 712 3315 
Q 1094 3584 1881 3584 
Q 2191 3584 2531 3537 
Q 2872 3491 3272 3391 
z
" transform="scale(0.015625)"/>
     </defs>
     <use xlink:href="#DejaVuSans-Bold-31"/>
     <use xlink:href="#DejaVuSans-Bold-36" x="69.580078"/>
     <use xlink:href="#DejaVuSans-Bold-20" x="139.160156"/>
     <use xlink:href="#DejaVuSans-Bold-45" x="173.974609"/>
     <use xlink:href="#DejaVuSans-Bold-54" x="242.285156"/>
     <use xlink:href="#DejaVuSans-Bold-48" x="310.498047"/>
     <use xlink:href="#DejaVuSans-Bold-20" x="394.189453"/>
     <use xlink:href="#DejaVuSans-Bold-4d" x="429.003906"/>
     <use xlink:href="#DejaVuSans-Bold-69" x="528.515625"/>
     <use xlink:href="#DejaVuSans-Bold-6e" x="562.792969"/>
     <use xlink:href="#DejaVuSans-Bold-69" x="633.984375"/>
     <use xlink:href="#DejaVuSans-Bold-70" x="668.261719"/>
     <use xlink:href="#DejaVuSans-Bold-6f" x="739.84375"/>
     <use xlink:href="#DejaVuSans-Bold-6f" x="808.544922"/>
     <use xlink:href="#DejaVuSans-Bold-6c" x="877.246094"/>
     <use xlink:href="#DejaVuSans-Bold-73" x="911.523438"/>
    </g>
   </g>
  </g>
 </g>
 <defs>
  <clipPath id="p60880e0bb3">
   <rect x="135" y="34.56" width="837" height="221.76"/>
  </clipPath>
 </defs>
</svg>
